# xmcd
#
# Track frame offsets: 
#        187
#        12555
#        29755
#        47920
#        68995
#        83947
#        98865
#        112245
#
# Disc length: 1724 seconds
#
# Revision: 2
# Processed by: cddbd v1.4PL0 Copyright (c) Steve Scherf et al.
# Submitted via: ExactAudioCopy v0.90b3
#
DISCID=7306ba08
DTITLE=Dolly Parton - 9 To 5 And Odd Jobs
DYEAR=1900
DGENRE=Country
TTITLE0=9 To 5
TTITLE1=Hush-A-Bye Hard Times
TTITLE2=The House Of The Rising Sun
TTITLE3=Deportee (Plane Wreck At Los Gatos)
TTITLE4=Working Girl
TTITLE5=But You Know I Love You
TTITLE6=Poor Folks Town
TTITLE7=Sing For The Common Man
EXTD=
EXTT0=
EXTT1=
EXTT2=
EXTT3=
EXTT4=
EXTT5=
EXTT6=
EXTT7=
PLAYORDER=
